<svg width="60" height="60" viewBox="0 0 60 60" fill="none" xmlns="http://www.w3.org/2000/svg">
<path d="M34.2429 44.0563C33.8006 51.2477 27.5429 56.8993 20.1222 56.326C13.242 55.8017 8 49.8717 8 42.9752V6.90351C8 6.31378 8.47506 5.8551 9.0484 5.8551H31.1312" stroke="black" stroke-width="1.08" stroke-miterlimit="10" stroke-linecap="square"/>
<path d="M25.4959 13.6691H18.2882C17.6984 13.6691 17.2397 14.1442 17.2397 14.7175V43.1064C17.2397 45.0721 17.682 47.1034 21.3678 47.1034C24.1363 47.1034 25.2011 45.5308 25.5287 43.4831" stroke="black" stroke-width="1.08" stroke-miterlimit="10" stroke-linecap="square"/>
<path d="M29.6567 43.2371C29.6567 47.9385 25.8398 51.7553 21.1384 51.7553C16.437 51.7553 12.6201 47.9385 12.6201 43.2371V10.8184C12.6201 10.2287 13.0952 9.77002 13.6685 9.77002H27.0855" stroke="black" stroke-width="1.08" stroke-miterlimit="10" stroke-linecap="square"/>
<path d="M25.5264 43.1566C25.5427 43.5825 25.6083 15.4558 25.6738 15.0462C26.7222 8.47733 32.6686 3.51379 39.6307 4.03799C46.5108 4.56219 51.7529 10.4922 51.7529 17.3888V53.4604C51.7529 54.0502 51.2778 54.5088 50.7045 54.5088H28.7199" stroke="black" stroke-width="1.08" stroke-miterlimit="10" stroke-linecap="square"/>
<path d="M34.1411 46.6962H41.4803C42.07 46.6962 42.5287 46.2211 42.5287 45.6478V17.259C42.5287 15.2932 41.1363 13.5404 39.2033 13.2619C37.4341 12.9998 34.2397 13.6715 34.2397 16.8986C34.2397 19.3394 34.3053 43.207 34.2397 43.6165" stroke="black" stroke-width="1.08" stroke-miterlimit="10" stroke-linecap="square"/>
<path d="M32.4055 50.6104H46.1003C46.69 50.6104 47.1487 50.1353 47.1487 49.5619V17.1269C47.1487 12.4255 43.3318 8.60864 38.6304 8.60864C34.3712 8.60864 30.2759 11.7211 29.637 15.8C29.5715 16.2423 29.637 42.6982 29.637 43.1569" stroke="black" stroke-width="1.08" stroke-miterlimit="10" stroke-linecap="square"/>
<path d="M21.3521 17.355V43.6143" stroke="black" stroke-width="1.08" stroke-miterlimit="10" stroke-linecap="square"/>
<path d="M38.4058 17.3553V43.6146" stroke="black" stroke-width="1.08" stroke-miterlimit="10" stroke-linecap="square"/>
</svg>
