<svg width="123" height="104" viewBox="0 0 123 104" fill="none" xmlns="http://www.w3.org/2000/svg">
<path d="M12.8906 91.0312H20.875V102.109C19.6771 102.516 18.4427 102.818 17.1719 103.016C15.9115 103.214 14.5 103.312 12.9375 103.312C10.5625 103.312 8.55729 102.839 6.92188 101.891C5.29688 100.943 4.0625 99.5938 3.21875 97.8438C2.375 96.0833 1.95312 93.9948 1.95312 91.5781C1.95312 89.2135 2.41667 87.151 3.34375 85.3906C4.28125 83.6302 5.63021 82.2656 7.39062 81.2969C9.16146 80.3177 11.2865 79.8281 13.7656 79.8281C15.0365 79.8281 16.2396 79.9479 17.375 80.1875C18.5208 80.4167 19.5833 80.7448 20.5625 81.1719L19.5469 83.4844C18.7031 83.1198 17.7708 82.8073 16.75 82.5469C15.7396 82.2865 14.6927 82.1562 13.6094 82.1562C11.7448 82.1562 10.1458 82.5417 8.8125 83.3125C7.48958 84.0833 6.47396 85.1719 5.76562 86.5781C5.06771 87.9844 4.71875 89.651 4.71875 91.5781C4.71875 93.4844 5.02604 95.1458 5.64062 96.5625C6.25521 97.9688 7.21354 99.0625 8.51562 99.8438C9.81771 100.625 11.4948 101.016 13.5469 101.016C14.5781 101.016 15.4635 100.958 16.2031 100.844C16.9427 100.719 17.6146 100.573 18.2188 100.406V93.4062H12.8906V91.0312ZM28.6094 85.875V103H26.0156V85.875H28.6094ZM27.3438 79.4688C27.7708 79.4688 28.1354 79.6094 28.4375 79.8906C28.75 80.1615 28.9062 80.5885 28.9062 81.1719C28.9062 81.7448 28.75 82.1719 28.4375 82.4531C28.1354 82.7344 27.7708 82.875 27.3438 82.875C26.8958 82.875 26.5208 82.7344 26.2188 82.4531C25.9271 82.1719 25.7812 81.7448 25.7812 81.1719C25.7812 80.5885 25.9271 80.1615 26.2188 79.8906C26.5208 79.6094 26.8958 79.4688 27.3438 79.4688ZM39.6406 101.188C40.0677 101.188 40.5052 101.151 40.9531 101.078C41.401 101.005 41.7656 100.917 42.0469 100.812V102.828C41.7448 102.964 41.3229 103.078 40.7812 103.172C40.25 103.266 39.7292 103.312 39.2188 103.312C38.3125 103.312 37.4896 103.156 36.75 102.844C36.0104 102.521 35.4167 101.979 34.9688 101.219C34.5312 100.458 34.3125 99.4062 34.3125 98.0625V87.9062H31.875V86.6406L34.3281 85.625L35.3594 81.9062H36.9219V85.875H41.9375V87.9062H36.9219V97.9844C36.9219 99.0573 37.1667 99.8594 37.6562 100.391C38.1562 100.922 38.8177 101.188 39.6406 101.188ZM64.1094 85.5625C65.9948 85.5625 67.4167 86.0573 68.375 87.0469C69.3333 88.026 69.8125 89.6042 69.8125 91.7812V103H67.25V91.9062C67.25 90.5208 66.9479 89.4844 66.3438 88.7969C65.75 88.099 64.8646 87.75 63.6875 87.75C62.0312 87.75 60.8281 88.2292 60.0781 89.1875C59.3281 90.1458 58.9531 91.5573 58.9531 93.4219V103H56.375V91.9062C56.375 90.9792 56.2396 90.2083 55.9688 89.5938C55.7083 88.9792 55.3125 88.5208 54.7812 88.2188C54.2604 87.9062 53.599 87.75 52.7969 87.75C51.6615 87.75 50.75 87.9844 50.0625 88.4531C49.375 88.9219 48.875 89.6198 48.5625 90.5469C48.2604 91.4635 48.1094 92.5938 48.1094 93.9375V103H45.5156V85.875H47.6094L48 88.2969H48.1406C48.4844 87.7031 48.9167 87.2031 49.4375 86.7969C49.9583 86.3906 50.5417 86.0833 51.1875 85.875C51.8333 85.6667 52.5208 85.5625 53.25 85.5625C54.5521 85.5625 55.6406 85.8073 56.5156 86.2969C57.401 86.776 58.0417 87.5104 58.4375 88.5H58.5781C59.1406 87.5104 59.9115 86.776 60.8906 86.2969C61.8698 85.8073 62.9427 85.5625 64.1094 85.5625ZM89.9062 94.4062C89.9062 95.8125 89.724 97.0677 89.3594 98.1719C88.9948 99.276 88.4688 100.208 87.7812 100.969C87.0938 101.729 86.2604 102.312 85.2812 102.719C84.3125 103.115 83.2135 103.312 81.9844 103.312C80.8385 103.312 79.7865 103.115 78.8281 102.719C77.8802 102.312 77.0573 101.729 76.3594 100.969C75.6719 100.208 75.1354 99.276 74.75 98.1719C74.375 97.0677 74.1875 95.8125 74.1875 94.4062C74.1875 92.5312 74.5052 90.9375 75.1406 89.625C75.776 88.3021 76.6823 87.2969 77.8594 86.6094C79.0469 85.9115 80.4583 85.5625 82.0938 85.5625C83.6562 85.5625 85.0208 85.9115 86.1875 86.6094C87.3646 87.3073 88.276 88.3177 88.9219 89.6406C89.5781 90.9531 89.9062 92.5417 89.9062 94.4062ZM76.875 94.4062C76.875 95.7812 77.0573 96.974 77.4219 97.9844C77.7865 98.9948 78.349 99.776 79.1094 100.328C79.8698 100.88 80.849 101.156 82.0469 101.156C83.2344 101.156 84.2083 100.88 84.9688 100.328C85.7396 99.776 86.3073 98.9948 86.6719 97.9844C87.0365 96.974 87.2188 95.7812 87.2188 94.4062C87.2188 93.0417 87.0365 91.8646 86.6719 90.875C86.3073 89.875 85.7448 89.1042 84.9844 88.5625C84.224 88.0208 83.2396 87.75 82.0312 87.75C80.25 87.75 78.9427 88.3385 78.1094 89.5156C77.2865 90.6927 76.875 92.3229 76.875 94.4062ZM105.469 98.3125C105.469 99.4062 105.193 100.328 104.641 101.078C104.099 101.818 103.318 102.375 102.297 102.75C101.286 103.125 100.078 103.312 98.6719 103.312C97.474 103.312 96.4375 103.219 95.5625 103.031C94.6875 102.844 93.9219 102.578 93.2656 102.234V99.8438C93.9635 100.188 94.7969 100.5 95.7656 100.781C96.7344 101.062 97.724 101.203 98.7344 101.203C100.214 101.203 101.286 100.964 101.953 100.484C102.62 100.005 102.953 99.3542 102.953 98.5312C102.953 98.0625 102.818 97.651 102.547 97.2969C102.286 96.9323 101.844 96.5833 101.219 96.25C100.594 95.9062 99.7292 95.5312 98.625 95.125C97.5312 94.7083 96.5833 94.2969 95.7812 93.8906C94.9896 93.474 94.375 92.9688 93.9375 92.375C93.5104 91.7812 93.2969 91.0104 93.2969 90.0625C93.2969 88.6146 93.8802 87.5052 95.0469 86.7344C96.224 85.9531 97.7656 85.5625 99.6719 85.5625C100.703 85.5625 101.667 85.6667 102.562 85.875C103.469 86.0729 104.312 86.3438 105.094 86.6875L104.219 88.7656C103.51 88.4635 102.755 88.2083 101.953 88C101.151 87.7917 100.333 87.6875 99.5 87.6875C98.3021 87.6875 97.3802 87.8854 96.7344 88.2812C96.099 88.6771 95.7812 89.2188 95.7812 89.9062C95.7812 90.4375 95.9271 90.875 96.2188 91.2188C96.5208 91.5625 97 91.8854 97.6562 92.1875C98.3125 92.4896 99.1771 92.8438 100.25 93.25C101.323 93.6458 102.25 94.0573 103.031 94.4844C103.812 94.901 104.411 95.4115 104.828 96.0156C105.255 96.6094 105.469 97.375 105.469 98.3125ZM120.719 98.3125C120.719 99.4062 120.443 100.328 119.891 101.078C119.349 101.818 118.568 102.375 117.547 102.75C116.536 103.125 115.328 103.312 113.922 103.312C112.724 103.312 111.688 103.219 110.812 103.031C109.938 102.844 109.172 102.578 108.516 102.234V99.8438C109.214 100.188 110.047 100.5 111.016 100.781C111.984 101.062 112.974 101.203 113.984 101.203C115.464 101.203 116.536 100.964 117.203 100.484C117.87 100.005 118.203 99.3542 118.203 98.5312C118.203 98.0625 118.068 97.651 117.797 97.2969C117.536 96.9323 117.094 96.5833 116.469 96.25C115.844 95.9062 114.979 95.5312 113.875 95.125C112.781 94.7083 111.833 94.2969 111.031 93.8906C110.24 93.474 109.625 92.9688 109.188 92.375C108.76 91.7812 108.547 91.0104 108.547 90.0625C108.547 88.6146 109.13 87.5052 110.297 86.7344C111.474 85.9531 113.016 85.5625 114.922 85.5625C115.953 85.5625 116.917 85.6667 117.812 85.875C118.719 86.0729 119.562 86.3438 120.344 86.6875L119.469 88.7656C118.76 88.4635 118.005 88.2083 117.203 88C116.401 87.7917 115.583 87.6875 114.75 87.6875C113.552 87.6875 112.63 87.8854 111.984 88.2812C111.349 88.6771 111.031 89.2188 111.031 89.9062C111.031 90.4375 111.177 90.875 111.469 91.2188C111.771 91.5625 112.25 91.8854 112.906 92.1875C113.562 92.4896 114.427 92.8438 115.5 93.25C116.573 93.6458 117.5 94.0573 118.281 94.4844C119.062 94.901 119.661 95.4115 120.078 96.0156C120.505 96.6094 120.719 97.375 120.719 98.3125Z" fill="black"/>
<path d="M65.2429 44.0563C64.8006 51.2477 58.5429 56.8993 51.1222 56.326C44.242 55.8017 39 49.8717 39 42.9752V6.90351C39 6.31378 39.4751 5.8551 40.0484 5.8551H62.1312" stroke="black" stroke-width="1.08" stroke-miterlimit="10" stroke-linecap="square"/>
<path d="M56.4959 13.6691H49.2882C48.6984 13.6691 48.2397 14.1442 48.2397 14.7175V43.1064C48.2397 45.0721 48.682 47.1034 52.3678 47.1034C55.1363 47.1034 56.2011 45.5308 56.5287 43.4831" stroke="black" stroke-width="1.08" stroke-miterlimit="10" stroke-linecap="square"/>
<path d="M60.6567 43.2371C60.6567 47.9385 56.8398 51.7553 52.1384 51.7553C47.437 51.7553 43.6201 47.9385 43.6201 43.2371V10.8184C43.6201 10.2287 44.0952 9.77002 44.6685 9.77002H58.0855" stroke="black" stroke-width="1.08" stroke-miterlimit="10" stroke-linecap="square"/>
<path d="M56.5264 43.1566C56.5427 43.5825 56.6083 15.4558 56.6738 15.0462C57.7222 8.47733 63.6686 3.51379 70.6307 4.03799C77.5108 4.56219 82.7529 10.4922 82.7529 17.3888V53.4604C82.7529 54.0502 82.2778 54.5088 81.7045 54.5088H59.7199" stroke="black" stroke-width="1.08" stroke-miterlimit="10" stroke-linecap="square"/>
<path d="M65.1411 46.6962H72.4803C73.07 46.6962 73.5287 46.2211 73.5287 45.6478V17.259C73.5287 15.2932 72.1363 13.5404 70.2033 13.2619C68.4341 12.9998 65.2397 13.6715 65.2397 16.8986C65.2397 19.3394 65.3053 43.207 65.2397 43.6165" stroke="black" stroke-width="1.08" stroke-miterlimit="10" stroke-linecap="square"/>
<path d="M63.4055 50.6104H77.1003C77.69 50.6104 78.1487 50.1353 78.1487 49.5619V17.1269C78.1487 12.4255 74.3318 8.60864 69.6304 8.60864C65.3712 8.60864 61.2759 11.7211 60.637 15.8C60.5715 16.2423 60.637 42.6982 60.637 43.1569" stroke="black" stroke-width="1.08" stroke-miterlimit="10" stroke-linecap="square"/>
<path d="M52.3521 17.355V43.6143" stroke="black" stroke-width="1.08" stroke-miterlimit="10" stroke-linecap="square"/>
<path d="M69.4058 17.3553V43.6146" stroke="black" stroke-width="1.08" stroke-miterlimit="10" stroke-linecap="square"/>
</svg>
