<svg width="109" height="25" viewBox="0 0 109 25" fill="none" xmlns="http://www.w3.org/2000/svg">
<path d="M12.1875 12.0312H19.9531V23.1406C18.7448 23.526 17.5156 23.8177 16.2656 24.0156C15.0156 24.2135 13.5677 24.3125 11.9219 24.3125C8.46354 24.3125 5.77083 23.2865 3.84375 21.2344C1.91667 19.1719 0.953125 16.2865 0.953125 12.5781C0.953125 10.2031 1.42708 8.125 2.375 6.34375C3.33333 4.55208 4.70833 3.1875 6.5 2.25C8.29167 1.30208 10.3906 0.828125 12.7969 0.828125C15.2344 0.828125 17.5052 1.27604 19.6094 2.17188L18.5781 4.51562C16.5156 3.64062 14.5312 3.20312 12.625 3.20312C9.84375 3.20312 7.67188 4.03125 6.10938 5.6875C4.54688 7.34375 3.76562 9.64062 3.76562 12.5781C3.76562 15.6615 4.51562 18 6.01562 19.5938C7.52604 21.1875 9.73958 21.9844 12.6562 21.9844C14.2396 21.9844 15.7865 21.8021 17.2969 21.4375V14.4062H12.1875V12.0312ZM27.6562 24H25.0625V6.875H27.6562V24ZM24.8438 2.23438C24.8438 1.64062 24.9896 1.20833 25.2812 0.9375C25.5729 0.65625 25.9375 0.515625 26.375 0.515625C26.7917 0.515625 27.151 0.65625 27.4531 0.9375C27.7552 1.21875 27.9062 1.65104 27.9062 2.23438C27.9062 2.81771 27.7552 3.25521 27.4531 3.54688C27.151 3.82812 26.7917 3.96875 26.375 3.96875C25.9375 3.96875 25.5729 3.82812 25.2812 3.54688C24.9896 3.25521 24.8438 2.81771 24.8438 2.23438ZM54.9844 24V12.8594C54.9844 11.4948 54.6927 10.474 54.1094 9.79688C53.526 9.10938 52.6198 8.76562 51.3906 8.76562C49.776 8.76562 48.5833 9.22917 47.8125 10.1562C47.0417 11.0833 46.6562 12.5104 46.6562 14.4375V24H44.0625V12.8594C44.0625 11.4948 43.7708 10.474 43.1875 9.79688C42.6042 9.10938 41.6927 8.76562 40.4531 8.76562C38.8281 8.76562 37.6354 9.25521 36.875 10.2344C36.125 11.2031 35.75 12.7969 35.75 15.0156V24H33.1562V6.875H35.2656L35.6875 9.21875H35.8125C36.3021 8.38542 36.9896 7.73438 37.875 7.26562C38.7708 6.79688 39.7708 6.5625 40.875 6.5625C43.5521 6.5625 45.3021 7.53125 46.125 9.46875H46.25C46.7604 8.57292 47.5 7.86458 48.4688 7.34375C49.4375 6.82292 50.5417 6.5625 51.7812 6.5625C53.7188 6.5625 55.1667 7.0625 56.125 8.0625C57.0938 9.05208 57.5781 10.6406 57.5781 12.8281V24H54.9844ZM77.7188 15.4219C77.7188 18.2135 77.0156 20.3958 75.6094 21.9688C74.2031 23.5312 72.2604 24.3125 69.7812 24.3125C68.25 24.3125 66.8906 23.9531 65.7031 23.2344C64.5156 22.5156 63.599 21.4844 62.9531 20.1406C62.3073 18.7969 61.9844 17.224 61.9844 15.4219C61.9844 12.6302 62.6823 10.4583 64.0781 8.90625C65.474 7.34375 67.4115 6.5625 69.8906 6.5625C72.2865 6.5625 74.1875 7.35938 75.5938 8.95312C77.0104 10.5469 77.7188 12.7031 77.7188 15.4219ZM64.6719 15.4219C64.6719 17.6094 65.1094 19.276 65.9844 20.4219C66.8594 21.5677 68.1458 22.1406 69.8438 22.1406C71.5417 22.1406 72.8281 21.5729 73.7031 20.4375C74.5885 19.2917 75.0312 17.6198 75.0312 15.4219C75.0312 13.2448 74.5885 11.5938 73.7031 10.4688C72.8281 9.33333 71.5312 8.76562 69.8125 8.76562C68.1146 8.76562 66.8333 9.32292 65.9688 10.4375C65.1042 11.5521 64.6719 13.2135 64.6719 15.4219ZM93.3281 19.3281C93.3281 20.9219 92.7344 22.151 91.5469 23.0156C90.3594 23.8802 88.6927 24.3125 86.5469 24.3125C84.276 24.3125 82.5052 23.9531 81.2344 23.2344V20.8281C82.0573 21.2448 82.9375 21.5729 83.875 21.8125C84.8229 22.0521 85.7344 22.1719 86.6094 22.1719C87.9635 22.1719 89.0052 21.9583 89.7344 21.5312C90.4635 21.0938 90.8281 20.4323 90.8281 19.5469C90.8281 18.8802 90.5365 18.3125 89.9531 17.8438C89.3802 17.3646 88.2552 16.8021 86.5781 16.1562C84.9844 15.5625 83.849 15.0469 83.1719 14.6094C82.5052 14.1615 82.0052 13.6562 81.6719 13.0938C81.349 12.5312 81.1875 11.8594 81.1875 11.0781C81.1875 9.68229 81.7552 8.58333 82.8906 7.78125C84.026 6.96875 85.5833 6.5625 87.5625 6.5625C89.4062 6.5625 91.2083 6.9375 92.9688 7.6875L92.0469 9.79688C90.3281 9.08854 88.7708 8.73438 87.375 8.73438C86.1458 8.73438 85.2188 8.92708 84.5938 9.3125C83.9688 9.69792 83.6562 10.2292 83.6562 10.9062C83.6562 11.3646 83.7708 11.7552 84 12.0781C84.2396 12.401 84.6198 12.7083 85.1406 13C85.6615 13.2917 86.6615 13.7135 88.1406 14.2656C90.1719 15.0052 91.5417 15.75 92.25 16.5C92.9688 17.25 93.3281 18.1927 93.3281 19.3281ZM108.609 19.3281C108.609 20.9219 108.016 22.151 106.828 23.0156C105.641 23.8802 103.974 24.3125 101.828 24.3125C99.5573 24.3125 97.7865 23.9531 96.5156 23.2344V20.8281C97.3385 21.2448 98.2188 21.5729 99.1562 21.8125C100.104 22.0521 101.016 22.1719 101.891 22.1719C103.245 22.1719 104.286 21.9583 105.016 21.5312C105.745 21.0938 106.109 20.4323 106.109 19.5469C106.109 18.8802 105.818 18.3125 105.234 17.8438C104.661 17.3646 103.536 16.8021 101.859 16.1562C100.266 15.5625 99.1302 15.0469 98.4531 14.6094C97.7865 14.1615 97.2865 13.6562 96.9531 13.0938C96.6302 12.5312 96.4688 11.8594 96.4688 11.0781C96.4688 9.68229 97.0365 8.58333 98.1719 7.78125C99.3073 6.96875 100.865 6.5625 102.844 6.5625C104.688 6.5625 106.49 6.9375 108.25 7.6875L107.328 9.79688C105.609 9.08854 104.052 8.73438 102.656 8.73438C101.427 8.73438 100.5 8.92708 99.875 9.3125C99.25 9.69792 98.9375 10.2292 98.9375 10.9062C98.9375 11.3646 99.0521 11.7552 99.2812 12.0781C99.5208 12.401 99.901 12.7083 100.422 13C100.943 13.2917 101.943 13.7135 103.422 14.2656C105.453 15.0052 106.823 15.75 107.531 16.5C108.25 17.25 108.609 18.1927 108.609 19.3281Z" fill="black"/>
</svg>
