<svg width="40" height="40" viewBox="0 0 40 40" fill="none" xmlns="http://www.w3.org/2000/svg">
<path d="M22.8287 29.3709C22.5339 34.1651 18.3621 37.9328 13.4149 37.5506C8.82818 37.2011 5.3335 33.2478 5.3335 28.6501V4.60232C5.3335 4.20917 5.6502 3.90338 6.03243 3.90338H20.7543" stroke="black" stroke-width="0.72" stroke-miterlimit="10" stroke-linecap="square"/>
<path d="M16.9973 9.11273H12.1921C11.7989 9.11273 11.4932 9.42944 11.4932 9.81167V28.7376C11.4932 30.0481 11.788 31.4023 14.2452 31.4023C16.0909 31.4023 16.8007 30.3538 17.0191 28.9887" stroke="black" stroke-width="0.72" stroke-miterlimit="10" stroke-linecap="square"/>
<path d="M19.7713 28.8247C19.7713 31.959 17.2267 34.5036 14.0924 34.5036C10.9581 34.5036 8.41357 31.959 8.41357 28.8247V7.2123C8.41357 6.81915 8.73028 6.51337 9.11251 6.51337H18.0572" stroke="black" stroke-width="0.72" stroke-miterlimit="10" stroke-linecap="square"/>
<path d="M17.0176 28.7711C17.0285 29.055 17.0722 10.3039 17.1159 10.0308C17.8148 5.65157 21.7791 2.34254 26.4205 2.69201C31.0072 3.04148 34.5019 6.99484 34.5019 11.5925V35.6403C34.5019 36.0335 34.1852 36.3392 33.803 36.3392H19.1466" stroke="black" stroke-width="0.72" stroke-miterlimit="10" stroke-linecap="square"/>
<path d="M22.7607 31.1308H27.6535C28.0467 31.1308 28.3525 30.8141 28.3525 30.4319V11.506C28.3525 10.1955 27.4242 9.02696 26.1355 8.84131C24.9561 8.66657 22.8265 9.11433 22.8265 11.2657C22.8265 12.893 22.8702 28.8047 22.8265 29.0777" stroke="black" stroke-width="0.72" stroke-miterlimit="10" stroke-linecap="square"/>
<path d="M21.6038 33.7402H30.7337C31.1268 33.7402 31.4326 33.4235 31.4326 33.0413V11.4179C31.4326 8.28364 28.888 5.73907 25.7537 5.73907C22.9143 5.73907 20.1841 7.81404 19.7582 10.5333C19.7145 10.8282 19.7582 28.4654 19.7582 28.7712" stroke="black" stroke-width="0.72" stroke-miterlimit="10" stroke-linecap="square"/>
<path d="M14.2349 11.57V29.0762" stroke="black" stroke-width="0.72" stroke-miterlimit="10" stroke-linecap="square"/>
<path d="M25.604 11.5703V29.0764" stroke="black" stroke-width="0.72" stroke-miterlimit="10" stroke-linecap="square"/>
</svg>
